<svg width="25" height="25" viewBox="0 0 25 25" fill="none" xmlns="http://www.w3.org/2000/svg">
<path d="M20.2051 6.25H18.1201V7.29004C18.1201 8.4375 17.1875 9.375 16.0352 9.375C14.8877 9.375 13.9502 8.44238 13.9502 7.29004V6.25H9.78516V7.29004C9.78516 8.4375 8.85254 9.375 7.7002 9.375C6.55273 9.375 5.61523 8.44238 5.61523 7.29004V6.25H3.54004C3.54004 16.665 2.5 25 2.5 25H21.25C21.2451 25 20.2051 16.665 20.2051 6.25ZM7.70508 8.33496C8.28125 8.33496 8.74512 7.87109 8.74512 7.29492V5.20996C8.74512 3.48145 10.1416 2.08496 11.8701 2.08496C13.5986 2.08496 14.9951 3.48145 14.9951 5.20996V7.29492C14.9951 7.87109 15.459 8.33496 16.0352 8.33496C16.6113 8.33496 17.0752 7.87109 17.0752 7.29492V5.20996C17.0801 2.33398 14.7461 0 11.8701 0C8.99414 0 6.66016 2.33398 6.66016 5.20996V7.29492C6.66504 7.86621 7.12891 8.33496 7.70508 8.33496Z" fill="#0D519B"/>
</svg>
